<?xml version="1.0" encoding="utf-8"?>
<!-- Generator: Adobe Illustrator 24.0.0, SVG Export Plug-In . SVG Version: 6.00 Build 0)  -->
<svg version="1.1" id="Layer_1" xmlns="http://www.w3.org/2000/svg" xmlns:xlink="http://www.w3.org/1999/xlink" x="0px" y="0px"
	 viewBox="0 0 397.106 72.632" style="enable-background:new 0 0 397.106 72.632;" xml:space="preserve">
<style type="text/css">
	.st0{fill:#1D9EBC;}
	.st1{fill:#60D0EA;}
</style>
<g>
	<g>
		<g>
			<path class="st0" d="M18.404,70.026c-2.733,0-5.184-0.321-7.354-0.964s-4.032-1.406-5.586-2.29
				c-1.555-0.884-2.8-1.781-3.737-2.693C0.79,63.169,0.213,62.445,0,61.909l0.241-0.241c0.482-0.696,1.017-1.258,1.607-1.688
				c0.535-0.321,1.097-0.482,1.688-0.482c0.374,0,0.736,0.054,1.085,0.161c0.348,0.108,0.736,0.241,1.165,0.402
				c0.428,0.108,0.856,0.256,1.286,0.443c0.428,0.188,0.91,0.415,1.447,0.682c1.071,0.43,2.331,0.818,3.777,1.166
				c1.447,0.349,3.187,0.576,5.224,0.682h0.884c1.982,0,3.669-0.227,5.063-0.682c1.393-0.455,2.518-1.045,3.375-1.768
				c0.856-0.723,1.473-1.527,1.848-2.411c0.374-0.884,0.563-1.729,0.563-2.532c0.053-1.393-0.362-2.664-1.246-3.817
				c-0.884-1.152-2.103-2.263-3.657-3.336c-1.555-1.071-3.375-2.17-5.465-3.295s-4.314-2.331-6.671-3.617
				c-3.858-2.196-6.725-4.647-8.599-7.353c-1.876-2.705-2.68-5.558-2.411-8.559c0.213-2.25,0.83-4.206,1.848-5.867
				c1.017-1.66,2.29-3.04,3.817-4.139c1.527-1.097,3.241-1.901,5.144-2.411c1.901-0.509,3.817-0.763,5.746-0.763
				c3.267,0,6.134,0.43,8.599,1.286c2.464,0.858,4.553,1.796,6.269,2.813c1.982,1.179,3.669,2.519,5.063,4.018l-0.161,0.241
				c-0.643,0.804-1.179,1.34-1.607,1.607c-0.536,0.375-1.125,0.563-1.768,0.563c-0.59,0-1.314-0.187-2.17-0.563
				c-0.43-0.161-0.872-0.334-1.326-0.522c-0.456-0.187-0.952-0.388-1.487-0.603c-1.555-0.589-3.202-1.057-4.943-1.406
				c-1.742-0.348-3.283-0.495-4.621-0.442c-0.697,0-1.447,0.054-2.25,0.161c-0.804,0.108-1.567,0.295-2.29,0.563
				c-0.723,0.269-1.366,0.643-1.929,1.125s-0.952,1.099-1.165,1.848c-0.482,1.607-0.148,3.028,1.005,4.26
				c1.152,1.233,2.705,2.439,4.661,3.617c1.955,1.179,4.125,2.345,6.51,3.496c2.383,1.153,4.621,2.451,6.711,3.897
				c2.893,2.037,5.049,4.113,6.47,6.229c1.419,2.117,2.29,4.192,2.612,6.228c0.321,2.037,0.213,3.992-0.321,5.867
				c-0.536,1.876-1.286,3.536-2.25,4.983c-1.715,2.68-4.273,4.73-7.675,6.149C26.293,69.316,22.529,70.026,18.404,70.026z"/>
			<path class="st0" d="M118.863,70.026c-2.733,0-5.184-0.321-7.354-0.964s-4.032-1.406-5.586-2.29
				c-1.555-0.884-2.8-1.781-3.737-2.693c-0.938-0.91-1.514-1.634-1.728-2.17l0.241-0.241c0.482-0.696,1.017-1.258,1.607-1.688
				c0.535-0.321,1.097-0.482,1.688-0.482c0.374,0,0.736,0.054,1.085,0.161c0.348,0.108,0.736,0.241,1.165,0.402
				c0.428,0.108,0.856,0.256,1.286,0.443c0.428,0.188,0.91,0.415,1.447,0.682c1.071,0.43,2.331,0.818,3.777,1.166
				c1.447,0.349,3.187,0.576,5.224,0.682h0.884c1.982,0,3.669-0.227,5.063-0.682c1.393-0.455,2.518-1.045,3.375-1.768
				c0.856-0.723,1.473-1.527,1.848-2.411c0.374-0.884,0.563-1.729,0.563-2.532c0.053-1.393-0.362-2.664-1.246-3.817
				c-0.884-1.152-2.103-2.263-3.657-3.336c-1.555-1.071-3.375-2.17-5.465-3.295c-2.09-1.125-4.314-2.331-6.671-3.617
				c-3.858-2.196-6.725-4.647-8.599-7.353c-1.876-2.705-2.68-5.558-2.411-8.559c0.213-2.25,0.83-4.206,1.848-5.867
				c1.017-1.66,2.29-3.04,3.817-4.139c1.527-1.097,3.241-1.901,5.144-2.411c1.901-0.509,3.817-0.763,5.746-0.763
				c3.267,0,6.134,0.43,8.599,1.286c2.464,0.858,4.553,1.796,6.269,2.813c1.982,1.179,3.669,2.519,5.063,4.018l-0.161,0.241
				c-0.643,0.804-1.179,1.34-1.607,1.607c-0.536,0.375-1.125,0.563-1.768,0.563c-0.59,0-1.314-0.187-2.17-0.563
				c-0.43-0.161-0.872-0.334-1.326-0.522c-0.456-0.187-0.952-0.388-1.487-0.603c-1.555-0.589-3.202-1.057-4.943-1.406
				c-1.742-0.348-3.283-0.495-4.621-0.442c-0.697,0-1.447,0.054-2.25,0.161c-0.804,0.108-1.567,0.295-2.29,0.563
				c-0.723,0.269-1.366,0.643-1.929,1.125s-0.952,1.099-1.165,1.848c-0.482,1.607-0.148,3.028,1.005,4.26
				c1.152,1.233,2.705,2.439,4.661,3.617c1.955,1.179,4.125,2.345,6.51,3.496c2.383,1.153,4.621,2.451,6.711,3.897
				c2.893,2.037,5.049,4.113,6.47,6.229c1.419,2.117,2.29,4.192,2.612,6.228c0.321,2.037,0.213,3.992-0.321,5.867
				c-0.536,1.876-1.286,3.536-2.25,4.983c-1.715,2.68-4.273,4.73-7.675,6.149C126.752,69.316,122.989,70.026,118.863,70.026z"/>
		</g>
	</g>
	<g>
		<g>
			<path class="st0" d="M192.411,13.066c3.536,0,6.953,0.603,10.248,1.808c3.295,1.206,6.228,3.014,8.8,5.425
				c2.572,2.411,4.622,5.412,6.149,9.001c1.527,3.59,2.29,7.743,2.29,12.457c0,4.715-0.777,8.868-2.331,12.457
				c-1.555,3.59-3.617,6.59-6.188,9.001c-2.572,2.411-5.519,4.233-8.841,5.465c-3.323,1.232-6.751,1.848-10.287,1.848
				c-0.912,0-2.063-0.014-3.456-0.041c-1.394-0.028-2.652-0.094-3.777-0.2c-0.858-0.108-1.661-0.256-2.411-0.443
				c-0.751-0.187-1.474-0.414-2.17-0.682c-2.144-0.856-3.751-2.25-4.822-4.179c-0.59-1.071-1.032-2.303-1.326-3.697
				c-0.295-1.393-0.442-3.026-0.442-4.902l0.161-29.093c0-3.643,0.563-6.51,1.688-8.599c1.071-1.982,2.705-3.402,4.902-4.26
				c1.286-0.535,2.813-0.884,4.581-1.045c1.125-0.161,2.371-0.254,3.737-0.281C190.281,13.08,191.447,13.066,192.411,13.066z
				 M192.411,63.618c2.09,0,4.139-0.362,6.149-1.086c2.009-0.723,3.804-1.929,5.385-3.617c1.58-1.688,2.866-3.924,3.858-6.71
				c0.991-2.785,1.486-6.269,1.486-10.448s-0.495-7.661-1.486-10.448c-0.992-2.785-2.278-5.023-3.858-6.711
				c-1.581-1.688-3.375-2.879-5.385-3.576c-2.01-0.696-4.059-1.045-6.149-1.045c-0.804,0-1.702,0-2.692,0
				c-0.992,0-1.916,0.121-2.773,0.362c-0.858,0.241-1.581,0.63-2.17,1.165c-0.59,0.536-0.884,1.34-0.884,2.411V59.68
				c0,1.072,0.294,1.876,0.884,2.411c0.589,0.536,1.312,0.924,2.17,1.165c0.856,0.241,1.781,0.362,2.773,0.362
				C190.709,63.618,191.607,63.618,192.411,63.618z"/>
			<path class="st0" d="M235.728,61.93c0,1.661,0.013,2.987,0.041,3.978c0.026,0.992,0.066,1.783,0.12,2.372
				c0.053,0.643,0.107,1.125,0.161,1.447c-3.323,0-5.841-0.684-7.555-2.05c-1.715-1.366-2.572-3.656-2.572-6.871V26.809
				c0-2.572,0.455-4.714,1.366-6.429c0.91-1.714,2.157-3.094,3.738-4.139c1.58-1.045,3.468-1.794,5.665-2.25
				c2.196-0.455,4.581-0.763,7.153-0.924c1.66-0.107,3.428-0.04,5.304,0.201c1.875,0.241,3.738,0.671,5.586,1.286
				c1.848,0.617,3.602,1.406,5.263,2.371c1.66,0.964,3.121,2.157,4.381,3.576c1.258,1.42,2.25,3.041,2.974,4.862
				c0.723,1.822,1.03,3.858,0.924,6.108c-0.108,3.162-1.112,5.975-3.013,8.439c-1.902,2.465-4.65,4.233-8.238,5.304
				c1.232,0.43,2.277,1.112,3.134,2.049c0.856,0.938,1.621,2.063,2.291,3.375c0.669,1.314,1.339,2.747,2.009,4.3
				c0.669,1.555,1.406,3.134,2.209,4.742c0.589,1.233,1.232,2.344,1.929,3.335c0.696,0.992,1.339,1.863,1.929,2.613
				c0.643,0.858,1.312,1.607,2.009,2.25c-0.482,0.482-1.018,0.884-1.607,1.206c-0.59,0.269-1.286,0.482-2.09,0.643
				s-1.768,0.161-2.893,0c-1.286-0.161-2.465-0.535-3.536-1.125c-1.072-0.589-2.144-1.499-3.215-2.733
				c-1.072-1.232-2.209-2.866-3.415-4.902c-1.206-2.036-2.586-4.581-4.14-7.635c-0.912-1.714-2.009-3.014-3.295-3.899
				c-1.286-0.884-2.867-1.593-4.742-2.129c-0.321-0.107-0.63-0.187-0.924-0.241c-0.295-0.053-0.577-0.133-0.845-0.241
				c-0.375-0.053-0.897-0.148-1.567-0.282c-0.671-0.133-1.354-0.253-2.05-0.361c-0.804-0.161-1.635-0.321-2.491-0.482V61.93z
				 M243.845,20.942c-1.607,0.161-2.933,0.442-3.978,0.844c-1.045,0.402-1.876,0.884-2.491,1.447
				c-0.617,0.563-1.059,1.193-1.327,1.889c-0.269,0.697-0.402,1.394-0.402,2.09c0,0.697,0,1.621,0,2.773
				c0,1.153,0.013,2.318,0.041,3.496c0.026,1.179,0.04,2.264,0.04,3.255c0,0.991,0,1.648,0,1.969
				c1.232,0.269,2.491,0.51,3.777,0.723c1.071,0.161,2.25,0.308,3.536,0.441c1.286,0.134,2.544,0.202,3.777,0.202
				c3.375,0,6.028-0.669,7.956-2.009c1.929-1.339,3.08-3.536,3.456-6.59c0.213-1.982-0.08-3.683-0.884-5.103
				c-0.804-1.419-1.902-2.544-3.295-3.375c-1.394-0.83-3.001-1.419-4.822-1.768C247.408,20.876,245.613,20.782,243.845,20.942z"/>
			<path class="st0" d="M327.589,65.225c0.213,0.536,0.428,1.045,0.643,1.527c0.213,0.482,0.402,0.938,0.563,1.366
				c0.213,0.482,0.402,0.964,0.563,1.447c-1.607,0.428-3.134,0.563-4.581,0.402c-1.233-0.108-2.478-0.482-3.736-1.125
				c-1.26-0.643-2.238-1.821-2.934-3.536c-0.321-0.75-0.912-2.223-1.768-4.42c-0.858-2.196-1.876-4.768-3.054-7.715h-22.825
				c-1.179,2.947-2.198,5.519-3.054,7.715c-0.858,2.198-1.447,3.671-1.768,4.42c-0.751,1.715-1.742,2.893-2.974,3.536
				c-1.233,0.643-2.465,1.017-3.697,1.125c-1.447,0.161-2.974,0.026-4.581-0.402c0.161-0.482,0.348-0.964,0.563-1.447
				c0.161-0.428,0.335-0.884,0.523-1.366c0.187-0.482,0.414-0.991,0.682-1.527c0.374-0.964,1.032-2.624,1.97-4.983
				c0.937-2.357,2.021-5.063,3.254-8.117c1.232-3.054,2.532-6.269,3.898-9.644c1.366-3.375,2.652-6.59,3.858-9.644
				s2.29-5.746,3.254-8.077c0.964-2.331,1.634-3.978,2.009-4.943c0.589-1.499,1.219-2.692,1.889-3.576
				c0.669-0.884,1.325-1.567,1.968-2.049c0.643-0.482,1.273-0.79,1.889-0.924c0.615-0.133,1.191-0.201,1.727-0.201
				c0.535,0,1.112,0.068,1.729,0.201c0.615,0.134,1.245,0.442,1.888,0.924c0.643,0.482,1.299,1.165,1.97,2.049
				c0.669,0.884,1.298,2.077,1.888,3.576c0.374,0.964,1.032,2.612,1.97,4.943c0.937,2.331,2.021,5.023,3.254,8.077
				c1.232,3.054,2.532,6.269,3.899,9.644c1.366,3.375,2.664,6.59,3.897,9.644c1.232,3.054,2.318,5.76,3.256,8.117
				C326.557,62.601,327.214,64.261,327.589,65.225z M310.23,45.214c-1.072-2.679-2.117-5.291-3.134-7.836
				c-1.018-2.544-1.902-4.835-2.652-6.871c-0.964-2.357-1.822-4.607-2.572-6.751c-0.858,2.144-1.742,4.394-2.652,6.751
				c-0.804,2.037-1.688,4.327-2.652,6.871c-0.964,2.545-1.983,5.157-3.054,7.836H310.23z"/>
			<path class="st0" d="M333.696,61.93V22.791c0-3.215,0.871-5.505,2.613-6.871c1.74-1.366,4.271-2.049,7.594-2.049
				c-0.054,0.321-0.108,0.804-0.161,1.447c-0.054,0.59-0.094,1.38-0.12,2.371c-0.028,0.992-0.041,2.29-0.041,3.898l-0.161,39.139
				c0,3.215-0.858,5.519-2.572,6.912c-1.715,1.394-4.207,2.09-7.474,2.09c0.053-0.321,0.107-0.804,0.161-1.447
				c0.053-0.589,0.08-1.393,0.08-2.411C333.615,64.851,333.642,63.538,333.696,61.93z"/>
			<path class="st0" d="M396.865,69.083c-0.375,0.108-0.804,0.215-1.286,0.321c-0.43,0.108-0.897,0.188-1.406,0.241
				c-0.51,0.054-1.059,0.08-1.648,0.08c-3.805,0-6.898-0.856-9.282-2.572c-2.385-1.714-4.461-4.366-6.229-7.956
				c-0.43-0.804-0.992-1.942-1.688-3.416c-0.697-1.473-1.46-3.134-2.29-4.983c-0.831-1.848-1.715-3.817-2.652-5.906
				c-0.938-2.09-1.863-4.151-2.773-6.188c-2.144-4.768-4.448-9.912-6.912-15.431l0.321,38.657c0.053,1.607,0.094,2.921,0.121,3.938
				c0.026,1.018,0.066,1.822,0.12,2.411c0.053,0.643,0.107,1.125,0.161,1.447c-3.323,0-5.867-0.684-7.635-2.05
				c-1.768-1.366-2.652-3.656-2.652-6.871V14.513c0.374-0.107,0.804-0.213,1.286-0.321c0.428-0.107,0.897-0.187,1.407-0.241
				c0.509-0.053,1.057-0.08,1.647-0.08c4.232,0,7.635,0.924,10.207,2.773s4.848,4.702,6.831,8.559
				c0.267,0.536,0.684,1.406,1.246,2.612c0.563,1.206,1.206,2.626,1.929,4.26c0.723,1.635,1.513,3.389,2.37,5.264
				c0.856,1.876,1.714,3.777,2.572,5.706c1.982,4.501,4.125,9.403,6.429,14.707l-0.241-34.96c0-3.161,0.884-5.437,2.652-6.831
				c1.768-1.393,4.312-2.09,7.635-2.09c-0.054,0.375-0.108,0.884-0.161,1.527c-0.054,0.59-0.094,1.38-0.12,2.371
				c-0.028,0.992-0.041,2.29-0.041,3.898L396.865,69.083z"/>
		</g>
	</g>
	<path class="st1" d="M58.171,36.506l-1.159,2.182c-1.28,2.339-1.913,4.822-1.913,7.44c0,8.464,6.887,15.352,15.352,15.352
		c8.463,0,15.352-6.887,15.352-15.352c0-2.513-0.58-4.9-1.73-7.098l-1.344-2.524L70.45,19.241L58.171,36.506z M70.45,72.632
		c-14.614,0-26.504-11.89-26.504-26.504c0-4.447,1.122-8.848,3.246-12.732l1.682-3.057L70.45,0l21.949,30.95l1.534,2.872
		c1.982,3.79,3.019,8.031,3.019,12.305C96.953,60.742,85.064,72.632,70.45,72.632z"/>
</g>
</svg>
